<svg width="1056" height="888" viewBox="0 0 1056 888" fill="none" xmlns="http://www.w3.org/2000/svg">
<g clip-path="url(#clip0_0_83)">
<g opacity="0.6" clip-path="url(#clip1_0_83)">
<path fill-rule="evenodd" clip-rule="evenodd" d="M996.928 658.364C1010.62 743.669 678.67 799.311 392.956 760.48C107.243 721.649 -23.8291 570.009 112.509 489.21C248.846 408.41 983.241 573.058 996.928 658.364Z" fill="#DDE3E9"/>
</g>
<path fill-rule="evenodd" clip-rule="evenodd" d="M688.089 246.763C678.304 255.913 667.972 261.525 662.512 261.291C648.821 260.704 637.535 213.475 643.599 192.621C649.663 171.767 699.558 152.633 710.044 189.169C713.683 201.85 710.72 214.487 704.727 225.558L733.232 289.256L691.638 298.097L688.089 246.763Z" fill="#B28B67"/>
<path fill-rule="evenodd" clip-rule="evenodd" d="M709.697 233.228C709.981 208.893 721.488 189.899 717.01 180.001C712.533 170.104 702.158 169.664 702.158 169.664C702.158 169.664 692.697 150.165 665.622 159.132C638.548 168.099 624.072 183.211 636.766 206.996C643.484 205.568 651.078 201.414 663.177 203.193C668.936 204.04 673.425 213.858 673.425 213.858L678.492 212.781C678.492 212.781 683.271 198.981 691.131 200.699C698.992 202.417 697.739 215.755 697.739 215.755L704.306 234.374L709.697 233.228Z" fill="black"/>
<path fill-rule="evenodd" clip-rule="evenodd" d="M825.666 406.276L694.009 626.383L595.304 812.465H574.044L739.425 406.276L825.666 406.276Z" fill="#997659"/>
<path fill-rule="evenodd" clip-rule="evenodd" d="M604.921 801.202C605.983 800.708 607.255 801.182 607.67 802.277C608.936 805.615 611.277 812.257 611.277 815.753C611.277 820.545 609.68 829.74 609.68 829.74C604.12 829.74 509.746 829.74 509.746 829.74C509.746 829.74 505.851 816.862 514.243 815.835C522.636 814.808 528.187 813.981 528.187 813.981L575.361 792.951C575.875 792.721 576.478 792.962 576.692 793.483L579.981 801.459C579.981 801.459 587.75 805.084 592.607 805.084C596.086 805.084 601.9 802.608 604.921 801.202Z" fill="black"/>
<path fill-rule="evenodd" clip-rule="evenodd" d="M622.717 782.668L581.717 770.265C581.717 770.265 608.662 689.715 647.766 592.98C686.871 496.245 731.76 406.276 731.76 406.276H847.559C847.559 406.276 797.652 520.082 741.742 613.091C685.833 706.101 622.717 782.668 622.717 782.668Z" fill="#254B45"/>
<path fill-rule="evenodd" clip-rule="evenodd" d="M834.319 406.276C846.745 483.623 870.711 582.443 872.973 585.493C874.481 587.526 928.764 605.715 1035.82 640.062L1031.23 658.809C903.563 640.389 836.293 626.098 829.421 615.936C819.113 600.693 767.642 480.272 747.706 406.276H834.319Z" fill="#B28B67"/>
<path fill-rule="evenodd" clip-rule="evenodd" d="M998.189 623.856L990.1 654.05C894.613 662.425 836.106 656.374 814.579 635.896C793.052 615.419 768.517 538.879 740.975 406.276H851.396C868.846 514.86 878.602 571.431 880.663 575.989C882.725 580.547 921.9 596.503 998.189 623.856Z" fill="#254B45"/>
<path fill-rule="evenodd" clip-rule="evenodd" d="M1027.36 635.118C1027.06 633.987 1027.75 632.816 1028.9 632.597C1032.4 631.93 1039.35 630.779 1042.79 631.386C1047.51 632.218 1056.29 635.387 1056.29 635.387C1055.32 640.862 1038.94 733.803 1038.94 733.803C1038.94 733.803 1025.58 735.402 1026.02 726.959C1026.47 718.516 1026.62 712.905 1026.62 712.905L1014.1 662.796C1013.96 662.25 1014.31 661.698 1014.86 661.577L1023.28 659.724C1023.28 659.724 1028.2 652.702 1029.04 647.919C1029.65 644.493 1028.22 638.338 1027.36 635.118Z" fill="black"/>
<path fill-rule="evenodd" clip-rule="evenodd" d="M564.082 418.503L632.812 402.342L632.326 436.1L571.268 435.433C549.291 446.454 538.038 450.152 537.508 446.525C537.061 443.466 539.163 441.685 541.099 440.043C542.607 438.765 544.014 437.572 544.038 435.927C544.092 432.17 534.076 428.272 524.417 424.98C514.757 421.689 519.238 418.681 522.361 417.585C534.321 415.946 548.228 416.251 564.082 418.503ZM943.397 456.959C934.775 448.986 843.777 338.704 843.777 338.704L807.608 352.744C807.608 352.744 918.649 463.944 923.628 469.288C930.096 476.23 929.047 490.327 928.336 499.886C928.226 501.365 928.124 502.735 928.059 503.953C934.267 504.29 935.711 500.448 937.235 496.397C938.955 491.822 940.776 486.981 949.672 487.595C953.109 487.832 956.484 488.377 959.782 488.909C971.173 490.748 981.637 492.437 990.518 480.788C991.926 478.941 992.303 473.879 986.132 472.404C970.758 468.731 947.612 460.857 943.397 456.959Z" fill="#997659"/>
<path fill-rule="evenodd" clip-rule="evenodd" d="M700.465 261.91L672.83 274.686C690.102 340.557 667.379 395.074 577.013 414.259L596.934 499.977C680.496 479.706 738.081 421.03 719.264 329.239C714.392 305.477 708.393 281.106 700.465 261.91Z" fill="#AFB9C5"/>
<path fill-rule="evenodd" clip-rule="evenodd" d="M932.137 442.477C872.231 345.269 799.558 280.17 714.119 247.179L711.397 248.224L711.305 248.26L711.292 248.295L672.101 274.63C691.914 326.245 695.235 369.22 698.428 410.536C699.807 428.379 701.162 445.912 703.811 463.698L819.859 419.151C828.701 437.3 837.113 456.212 845.245 475.832L932.137 442.477Z" fill="#C5CFD6"/>
<path fill-rule="evenodd" clip-rule="evenodd" d="M819.859 419.151C801.857 382.203 782.072 348.423 759.236 318.298C775.304 353.72 793.163 398.46 796.273 428.205L819.859 419.151Z" fill="black" fill-opacity="0.1"/>
<path fill-rule="evenodd" clip-rule="evenodd" d="M376.893 241.48C382.959 253.425 390.749 262.233 395.959 263.88C409.025 268.012 435.784 227.49 437.218 205.82C438.652 184.149 398.31 149.105 375.961 179.851C368.204 190.522 366.667 203.41 368.512 215.864L319.94 265.971L356.002 288.505L376.893 241.48Z" fill="#B28B67"/>
<path fill-rule="evenodd" clip-rule="evenodd" d="M451.026 193.275C446.011 201.3 435.622 203.925 427.438 199.399C422.034 197.965 415.571 195.354 408.845 191.753C407.999 194.502 406.667 197.393 404.776 200.418C403.107 203.09 401.041 205.74 398.7 208.277C398.34 205.738 397.146 203.482 395.246 202.295C389.931 198.974 383.498 201.034 380.597 205.677C376.915 211.57 377.653 217.958 382.406 221.402C372.57 227.191 362.346 229.791 356.168 225.93C344.431 218.596 345.891 197.691 356.433 180.82C356.804 180.227 357.183 179.646 357.572 179.076C351.895 179.32 345.98 180.593 340.023 181.875L340.023 181.875C327.365 184.6 314.515 187.367 303.345 180.387C280.996 166.422 300.288 115.798 331.513 135.309C352.748 148.578 361.258 158.201 367.399 168.405C372.302 164.509 377.639 161.992 382.786 161.122C384.143 160.723 385.9 160.628 387.972 160.818C389.264 160.892 390.529 161.086 391.754 161.403C398.43 162.8 407.173 166.307 416.148 171.489C417.824 172.456 419.445 173.446 421.004 174.449C426.201 166.188 437.106 163.684 445.389 168.86C453.687 174.045 456.211 184.976 451.026 193.275Z" fill="black"/>
<path fill-rule="evenodd" clip-rule="evenodd" d="M172.589 578.534C172.589 578.534 236.346 596.367 282.604 596.367C328.862 596.367 368.538 568.904 368.538 568.904C368.538 568.904 306.146 550.6 265.772 550.6C225.399 550.6 172.589 578.534 172.589 578.534Z" fill="black"/>
<path fill-rule="evenodd" clip-rule="evenodd" d="M319.4 613.503C318.99 612.887 318.644 612.216 318.369 611.49C312.688 596.465 221.684 434.374 212.618 404.74H315.075C321.968 427.271 352.994 568.668 357.36 596.878C371.136 641.378 399.501 785.495 403.122 795.479C406.931 805.982 385.498 816.923 379.786 804.011C370.699 783.465 349.045 726.617 339.404 691.906C330.365 659.364 323.005 630.087 319.4 613.503Z" fill="#997659"/>
<path fill-rule="evenodd" clip-rule="evenodd" d="M235.575 633.293C193.97 643.808 41.7865 662.818 31.343 665.8C20.5999 668.867 11.1803 646.723 24.4594 641.927C45.5886 634.294 103.809 616.659 139.108 609.463C167.501 603.674 193.41 598.951 210.804 596.185C209.331 547.324 202.594 430.065 207.01 404.74H297.665C293.431 429.025 257.64 606.227 250.988 623.964C248.877 630.296 242.577 633.095 235.575 633.293V633.293Z" fill="#B28B67"/>
<path fill-rule="evenodd" clip-rule="evenodd" d="M28.6428 638.897C28.945 637.766 28.2571 636.596 27.1069 636.377C23.5996 635.709 16.6527 634.558 13.21 635.165C8.49015 635.997 -0.287532 639.166 -0.287532 639.166C0.677916 644.642 17.0658 737.582 17.0658 737.582C17.0658 737.582 30.4245 739.182 29.9784 730.738C29.5322 722.295 29.3832 716.684 29.3832 716.684L41.9023 666.576C42.0388 666.029 41.6971 665.478 41.1469 665.357L32.7205 663.504C32.7205 663.504 27.8014 656.482 26.9579 651.698C26.354 648.273 27.7827 642.117 28.6428 638.897Z" fill="#E4E4E4"/>
<path fill-rule="evenodd" clip-rule="evenodd" d="M376.665 799.666C375.604 799.172 374.331 799.646 373.916 800.741C372.65 804.079 370.31 810.721 370.31 814.216C370.31 819.009 371.906 828.204 371.906 828.204C377.466 828.204 471.84 828.204 471.84 828.204C471.84 828.204 475.735 815.326 467.343 814.299C458.95 813.272 453.399 812.445 453.399 812.445L406.225 791.415C405.711 791.185 405.108 791.426 404.894 791.947L401.605 799.923C401.605 799.923 393.836 803.548 388.979 803.548C385.5 803.548 379.687 801.072 376.665 799.666Z" fill="#E4E4E4"/>
<path fill-rule="evenodd" clip-rule="evenodd" d="M207.302 404.74C207.302 404.74 267.226 387.596 320.699 404.74C333.101 461.327 363.238 483.787 368.538 570.544C308.296 600.477 233.88 549.197 171.866 578.387C154.148 537.557 178.953 439.227 207.302 404.74Z" fill="black"/>
<path fill-rule="evenodd" clip-rule="evenodd" d="M437.23 505.791L407.919 442.092L382.019 463.047L419.717 510.479C424.547 534.415 428.53 545.486 431.668 543.69C434.313 542.176 434.416 539.444 434.511 536.927C434.584 534.966 434.653 533.136 435.915 532.115C438.797 529.783 447.921 535.255 456.358 540.817C464.794 546.379 464.4 541.035 463.348 537.921C457.338 527.55 448.631 516.841 437.23 505.791ZM135.538 466.184C144.16 458.21 197.46 368.701 197.46 368.701L231.974 382.106C231.974 382.106 160.286 473.168 155.307 478.512C148.839 485.454 149.888 499.551 150.599 509.11C150.709 510.589 150.811 511.959 150.876 513.177C144.668 513.514 143.224 509.672 141.7 505.621C139.98 501.046 138.159 496.205 129.263 496.819C125.826 497.056 122.451 497.601 119.153 498.133C107.762 499.972 97.2983 501.661 88.4167 490.012C87.0087 488.165 86.6322 483.103 92.8032 481.628C108.177 477.955 131.323 470.082 135.538 466.184Z" fill="#B28B67"/>
<path fill-rule="evenodd" clip-rule="evenodd" d="M351.372 261.362L366.617 264.4C367.629 335.37 389.167 407.771 431.23 481.601L363.237 520.136C329.361 424.998 319.892 336.624 351.372 261.362Z" fill="#254B45"/>
<path fill-rule="evenodd" clip-rule="evenodd" d="M220.019 417.179L347.388 466.071C347.388 466.071 344.437 341.458 373.314 266.233L337.09 245.761C288.254 282.732 256.775 339.25 220.019 417.179Z" fill="#DDE3E9"/>
<path fill-rule="evenodd" clip-rule="evenodd" d="M141.171 449.541C215.424 297.739 336.246 245.437 336.246 245.437L336.266 245.475C336.275 245.468 336.283 245.461 336.292 245.454L338.8 246.417C343.242 248.3 352.298 252.239 352.298 252.239L351.398 282.334C334.245 331.42 293.531 484.505 293.531 484.505L210.161 452.502C207.715 459.298 205.404 466.256 203.252 473.372L141.171 449.541Z" fill="#254B45"/>
<path fill-rule="evenodd" clip-rule="evenodd" d="M209.925 453.159C220.53 423.543 233.717 396.975 247.639 373.695C238.548 404.171 229.623 441.616 233.151 462.075L209.925 453.159Z" fill="black" fill-opacity="0.1"/>
<path fill-rule="evenodd" clip-rule="evenodd" d="M248.056 408.962L296.573 405.626L289.226 424.766L248.056 408.962Z" fill="white" fill-opacity="0.2"/>
</g>
<defs>
<clipPath id="clip0_0_83">
<rect width="1056" height="888" fill="white"/>
</clipPath>
<clipPath id="clip1_0_83">
<rect width="939.324" height="305.576" fill="white" transform="translate(58.3378 467.506)"/>
</clipPath>
</defs>
</svg>
