<svg width="1056" height="888" viewBox="0 0 1056 888" fill="none" xmlns="http://www.w3.org/2000/svg">
<g clip-path="url(#clip0_0_83)">
<g opacity="0.6" clip-path="url(#clip1_0_83)">
<path fill-rule="evenodd" clip-rule="evenodd" d="M1000.08 658.105C1013.82 743.506 680.81 799.211 394.183 760.336C107.557 721.461 -23.9335 569.651 112.84 488.761C249.613 407.87 986.354 572.704 1000.08 658.105Z" fill="#DDE3E9"/>
</g>
<path fill-rule="evenodd" clip-rule="evenodd" d="M835.96 246.072C845.766 255.242 856.121 260.867 861.592 260.632C875.313 260.044 886.624 212.712 880.546 191.812C874.469 170.913 824.466 151.738 813.957 188.353C810.31 201.061 813.28 213.726 819.286 224.821L790.718 288.657L832.403 297.518L835.96 246.072Z" fill="#B28B67"/>
<path fill-rule="evenodd" clip-rule="evenodd" d="M814.305 232.507C814.02 208.12 802.488 189.085 806.976 179.166C811.463 169.246 821.86 168.806 821.86 168.806C821.86 168.806 831.342 149.264 858.476 158.251C885.609 167.237 900.116 182.382 887.395 206.218C880.662 204.787 873.051 200.625 860.926 202.408C855.154 203.256 850.656 213.096 850.656 213.096L845.577 212.016C845.577 212.016 840.789 198.187 832.911 199.908C825.034 201.629 826.289 214.997 826.289 214.997L819.708 233.656L814.305 232.507Z" fill="black"/>
<path fill-rule="evenodd" clip-rule="evenodd" d="M698.083 405.932L830.027 626.518L928.947 813.004H950.253L784.512 405.932L698.083 405.932Z" fill="#997659"/>
<path fill-rule="evenodd" clip-rule="evenodd" d="M919.305 801.715C918.243 801.221 916.971 801.695 916.555 802.79C915.287 806.134 912.939 812.794 912.939 816.299C912.939 821.102 914.54 830.316 914.54 830.316C920.111 830.316 1014.69 830.316 1014.69 830.316C1014.69 830.316 1018.59 817.411 1010.18 816.381C1001.77 815.352 996.209 814.523 996.209 814.523L948.931 793.446C948.417 793.217 947.814 793.458 947.6 793.979L944.303 801.975C944.303 801.975 936.517 805.607 931.649 805.607C928.162 805.607 922.331 803.124 919.305 801.715Z" fill="black"/>
<path fill-rule="evenodd" clip-rule="evenodd" d="M901.474 783.142L942.563 770.712C942.563 770.712 915.56 689.987 876.37 593.042C837.181 496.096 792.194 405.932 792.194 405.932H676.144C676.144 405.932 726.159 519.986 782.19 613.197C838.221 706.408 901.474 783.142 901.474 783.142Z" fill="#254B45"/>
<path fill-rule="evenodd" clip-rule="evenodd" d="M689.412 405.932C676.959 483.447 652.941 582.482 650.674 585.538C649.163 587.576 594.762 605.805 487.471 640.226L492.074 659.014C620.018 640.554 687.433 626.232 694.321 616.048C704.651 600.772 756.234 480.089 776.213 405.932H689.412Z" fill="#B28B67"/>
<path fill-rule="evenodd" clip-rule="evenodd" d="M525.186 623.985L533.293 654.245C628.987 662.638 687.621 656.573 709.195 636.051C730.769 615.529 755.357 538.823 782.959 405.932H672.298C654.81 514.752 645.033 571.446 642.967 576.014C640.901 580.582 601.641 596.572 525.186 623.985Z" fill="#254B45"/>
<path fill-rule="evenodd" clip-rule="evenodd" d="M495.953 635.267C496.255 634.136 495.568 632.965 494.417 632.746C490.904 632.077 483.937 630.922 480.485 631.531C475.755 632.365 466.959 635.541 466.959 635.541C467.926 641.028 484.35 734.17 484.35 734.17C484.35 734.17 497.737 735.774 497.29 727.312C496.843 718.85 496.694 713.228 496.694 713.228L509.241 663.008C509.377 662.461 509.036 661.91 508.485 661.789L500.038 659.931C500.038 659.931 495.109 652.894 494.263 648.1C493.658 644.666 495.091 638.493 495.953 635.267Z" fill="black"/>
<path fill-rule="evenodd" clip-rule="evenodd" d="M960.236 418.186L891.357 401.989L891.844 435.821L953.035 435.152C975.059 446.198 986.337 449.903 986.868 446.268C987.316 443.203 985.21 441.418 983.27 439.773C981.758 438.491 980.348 437.296 980.324 435.647C980.27 431.883 990.307 427.976 999.988 424.677C1009.67 421.378 1005.18 418.364 1002.05 417.266C990.062 415.623 976.125 415.929 960.236 418.186ZM580.097 456.726C588.738 448.735 679.933 338.213 679.933 338.213L716.181 352.284C716.181 352.284 604.899 463.725 599.909 469.081C593.427 476.038 594.478 490.166 595.191 499.745C595.301 501.227 595.403 502.6 595.468 503.821C589.247 504.159 587.799 500.309 586.273 496.249C584.548 491.664 582.724 486.812 573.808 487.428C570.364 487.666 566.981 488.212 563.676 488.745C552.261 490.587 541.774 492.28 532.873 480.606C531.462 478.755 531.085 473.682 537.269 472.204C552.677 468.523 575.873 460.632 580.097 456.726Z" fill="#997659"/>
<path fill-rule="evenodd" clip-rule="evenodd" d="M823.557 261.252L851.252 274.056C833.942 340.07 856.715 394.705 947.277 413.932L927.314 499.837C843.57 479.521 785.859 420.719 804.718 328.728C809.599 304.914 815.612 280.49 823.557 261.252Z" fill="#AFB9C5"/>
<path fill-rule="evenodd" clip-rule="evenodd" d="M591.381 442.212C651.418 344.793 724.249 279.552 809.874 246.49L812.601 247.537L812.694 247.572L812.706 247.607L851.983 274C832.127 325.728 828.798 368.795 825.598 410.202C824.216 428.083 822.858 445.654 820.204 463.479L703.903 418.835C695.042 437.023 686.612 455.977 678.463 475.639L591.381 442.212Z" fill="#C5CFD6"/>
<path fill-rule="evenodd" clip-rule="evenodd" d="M703.903 418.835C721.944 381.806 741.773 347.953 764.659 317.763C748.556 353.262 730.657 398.099 727.541 427.909L703.903 418.835Z" fill="black" fill-opacity="0.1"/>
<path fill-rule="evenodd" clip-rule="evenodd" d="M377.713 240.778C383.791 252.749 391.598 261.576 396.82 263.227C409.914 267.367 436.731 226.758 438.169 205.04C439.606 183.322 399.176 148.202 376.778 179.015C369.005 189.709 367.464 202.625 369.313 215.106L320.635 265.321L356.776 287.905L377.713 240.778Z" fill="#B28B67"/>
<path fill-rule="evenodd" clip-rule="evenodd" d="M452.006 192.468C446.98 200.511 436.569 203.141 428.367 198.605C422.951 197.169 416.475 194.552 409.734 190.943C408.886 193.698 407.551 196.595 405.656 199.627C403.983 202.305 401.913 204.96 399.567 207.503C399.206 204.958 398.01 202.698 396.105 201.508C390.778 198.179 384.332 200.244 381.425 204.897C377.735 210.802 378.474 217.204 383.237 220.656C373.38 226.458 363.134 229.063 356.942 225.194C345.18 217.844 346.643 196.893 357.208 179.986C357.579 179.392 357.96 178.809 358.349 178.238C352.66 178.482 346.732 179.758 340.762 181.043C328.077 183.774 315.199 186.547 304.005 179.552C281.607 165.556 300.941 114.823 332.233 134.376C353.514 147.674 362.044 157.318 368.198 167.544C373.112 163.639 378.46 161.117 383.618 160.245C384.978 159.845 386.738 159.75 388.815 159.94C390.11 160.015 391.378 160.209 392.606 160.527C399.296 161.927 408.058 165.441 417.053 170.634C418.732 171.604 420.357 172.596 421.919 173.601C427.128 165.322 438.056 162.813 446.357 168C454.674 173.197 457.203 184.151 452.006 192.468Z" fill="black"/>
<path fill-rule="evenodd" clip-rule="evenodd" d="M172.964 578.564C172.964 578.564 236.86 596.436 283.218 596.436C329.577 596.436 369.339 568.914 369.339 568.914C369.339 568.914 306.811 550.57 266.35 550.57C225.889 550.57 172.964 578.564 172.964 578.564Z" fill="black"/>
<path fill-rule="evenodd" clip-rule="evenodd" d="M320.094 613.609C319.683 612.992 319.336 612.32 319.061 611.593C313.367 596.535 222.166 434.092 213.08 404.393H315.76C322.668 426.973 353.761 568.677 358.137 596.949C371.943 641.545 400.369 785.975 403.998 795.981C407.815 806.507 386.336 817.472 380.612 804.532C371.505 783.942 349.804 726.969 340.142 692.183C331.083 659.57 323.707 630.23 320.094 613.609Z" fill="#997659"/>
<path fill-rule="evenodd" clip-rule="evenodd" d="M236.087 633.442C194.392 643.981 41.8774 663.032 31.4112 666.02C20.6447 669.094 11.2046 646.902 24.5125 642.095C45.6877 634.446 104.035 616.772 139.411 609.56C167.865 603.759 193.83 599.026 211.262 596.254C209.786 547.287 203.035 429.773 207.46 404.393H298.312C294.069 428.731 258.2 606.317 251.533 624.093C249.418 630.439 243.105 633.244 236.087 633.442V633.442Z" fill="#B28B67"/>
<path fill-rule="evenodd" clip-rule="evenodd" d="M28.7063 639.055C29.0085 637.923 28.3208 636.753 27.1705 636.534C23.6572 635.865 16.6905 634.71 13.2387 635.319C8.50861 636.153 -0.28815 639.329 -0.28815 639.329C0.679397 644.816 17.1029 737.958 17.1029 737.958C17.1029 737.958 30.4907 739.562 30.0436 731.1C29.5964 722.638 29.4471 717.015 29.4471 717.015L41.9939 666.795C42.1304 666.249 41.7887 665.697 41.2385 665.576L32.7916 663.719C32.7916 663.719 27.8619 656.682 27.0165 651.887C26.411 648.453 27.8444 642.28 28.7063 639.055Z" fill="#E4E4E4"/>
<path fill-rule="evenodd" clip-rule="evenodd" d="M377.48 800.176C376.418 799.681 375.146 800.155 374.731 801.25C373.462 804.594 371.114 811.254 371.114 814.759C371.114 819.562 372.715 828.777 372.715 828.777C378.287 828.777 472.866 828.777 472.866 828.777C472.866 828.777 476.769 815.871 468.359 814.842C459.948 813.813 454.384 812.984 454.384 812.984L407.106 791.907C406.592 791.678 405.989 791.918 405.775 792.439L402.478 800.435C402.478 800.435 394.692 804.068 389.824 804.068C386.337 804.068 380.507 801.584 377.48 800.176Z" fill="#E4E4E4"/>
<path fill-rule="evenodd" clip-rule="evenodd" d="M207.753 404.393C207.753 404.393 267.807 387.211 321.396 404.393C333.825 461.103 364.028 483.611 369.339 570.558C308.966 600.555 234.388 549.164 172.24 578.417C154.483 537.499 179.342 438.955 207.753 404.393Z" fill="black"/>
<path fill-rule="evenodd" clip-rule="evenodd" d="M438.18 505.664L408.806 441.826L382.849 462.827L420.63 510.362C425.47 534.35 429.462 545.444 432.606 543.645C435.257 542.128 435.36 539.389 435.455 536.867C435.529 534.902 435.598 533.068 436.863 532.045C439.751 529.708 448.895 535.191 457.35 540.765C465.805 546.34 465.409 540.984 464.355 537.863C458.332 527.47 449.607 516.737 438.18 505.664ZM135.833 465.97C144.474 457.979 197.889 368.275 197.889 368.275L232.479 381.71C232.479 381.71 160.635 472.969 155.645 478.325C149.163 485.282 150.214 499.41 150.927 508.989C151.037 510.471 151.139 511.845 151.204 513.066C144.983 513.403 143.535 509.553 142.008 505.493C140.284 500.908 138.459 496.056 129.544 496.672C126.099 496.91 122.717 497.456 119.412 497.989C107.997 499.831 97.5098 501.524 88.609 489.85C87.1979 487.999 86.8206 482.926 93.005 481.448C108.413 477.767 131.608 469.876 135.833 465.97Z" fill="#B28B67"/>
<path fill-rule="evenodd" clip-rule="evenodd" d="M352.136 260.703L367.414 263.747C368.428 334.872 390.013 407.43 432.168 481.421L364.027 520.039C330.077 424.695 320.587 336.128 352.136 260.703Z" fill="#254B45"/>
<path fill-rule="evenodd" clip-rule="evenodd" d="M220.498 416.858L348.143 465.857C348.143 465.857 345.186 340.973 374.125 265.585L337.823 245.068C288.88 282.12 257.333 338.76 220.498 416.858Z" fill="#DDE3E9"/>
<path fill-rule="evenodd" clip-rule="evenodd" d="M141.478 449.291C215.893 297.159 336.977 244.743 336.977 244.743L336.997 244.782C337.006 244.775 337.014 244.768 337.023 244.761L339.536 245.725C343.988 247.612 353.064 251.56 353.064 251.56L352.162 281.72C334.972 330.914 294.169 484.331 294.169 484.331L210.618 452.258C208.166 459.07 205.851 466.042 203.694 473.174L141.478 449.291Z" fill="#254B45"/>
<path fill-rule="evenodd" clip-rule="evenodd" d="M210.381 452.917C221.009 423.237 234.225 396.611 248.177 373.28C239.066 403.822 230.123 441.349 233.658 461.852L210.381 452.917Z" fill="black" fill-opacity="0.1"/>
<path fill-rule="evenodd" clip-rule="evenodd" d="M248.596 408.624L297.218 405.281L289.855 424.462L248.596 408.624Z" fill="white" fill-opacity="0.2"/>
</g>
<defs>
<clipPath id="clip0_0_83">
<rect width="1056" height="888" fill="white"/>
</clipPath>
<clipPath id="clip1_0_83">
<rect width="942.008" height="305.921" fill="white" transform="translate(58.4959 467.032)"/>
</clipPath>
</defs>
</svg>
